<?xml version="1.0" encoding="UTF-8" standalone="no"?>
<!-- Created with Inkscape (http://www.inkscape.org/) -->

<svg
   version="1.1"
   id="svg1"
   width="1024"
   height="1024"
   viewBox="0 0 1024 1024"
   sodipodi:docname="logo.svg"
   inkscape:version="1.4.2 (ebf0e940d0, 2025-05-08)"
   xmlns:inkscape="http://www.inkscape.org/namespaces/inkscape"
   xmlns:sodipodi="http://sodipodi.sourceforge.net/DTD/sodipodi-0.dtd"
   xmlns="http://www.w3.org/2000/svg"
   xmlns:svg="http://www.w3.org/2000/svg">
  <defs
     id="defs1" />
  <sodipodi:namedview
     id="namedview1"
     pagecolor="#ffffff"
     bordercolor="#111111"
     borderopacity="1"
     inkscape:showpageshadow="0"
     inkscape:pageopacity="0"
     inkscape:pagecheckerboard="1"
     inkscape:deskcolor="#d1d1d1"
     inkscape:zoom="0.93057626"
     inkscape:cx="267.57614"
     inkscape:cy="653.8959"
     inkscape:window-width="3436"
     inkscape:window-height="1418"
     inkscape:window-x="0"
     inkscape:window-y="0"
     inkscape:window-maximized="0"
     inkscape:current-layer="g1" />
  <g
     inkscape:groupmode="layer"
     inkscape:label="Image"
     id="g1">
    <g
       id="g135"
       transform="matrix(1.3144764,0,0,1.3144764,-161.23817,-159.24731)">
      <path
         style="fill:#e5e4e0;fill-opacity:1;stroke:#000000;stroke-width:1px;stroke-linecap:butt;stroke-linejoin:miter;stroke-opacity:1"
         d="m 241.63517,439.19852 266.71053,-225.67813 158.81053,123.09716 -0.75985,-84.34435 60.02886,-1.51972 -4.55915,127.65632 53.19013,53.94999 -5.31901,370.81121 -505.30626,-2.27957 z"
         id="path135" />
      <path
         style="fill:#000000"
         d="m 257.88228,819.62349 c -8.25314,-2.95854 -13.8231,-7.86273 -18.18008,-16.00702 L 237.5,799.5 237,641.14218 236.5,482.78437 223,482.91695 c -24.61335,0.24172 -32.35174,-1.86028 -36.94671,-10.03593 -2.45936,-4.37583 -2.74463,-12.64344 -0.58065,-16.82811 1.32711,-2.56635 43.5637,-38.08174 248.84954,-209.24955 67.743,-56.48427 66.00344,-55.28544 79.27104,-54.63048 5.50441,0.27172 8.35626,1.01955 12.73199,3.33864 3.14234,1.6654 31.65688,24.61871 64.40678,51.84541 L 649.5,296.21386 650,267.67773 C 650.72181,226.48246 647.00696,229.5 697,229.5 c 40.88526,0 39.08917,-0.27825 44.43821,6.88444 2.02294,2.70884 2.07121,4.03968 2.56179,70.63365 l 0.5,67.87278 44,36.64766 c 24.2,20.15621 45.27767,37.84327 46.83928,39.30456 9.57804,8.96284 7.56243,23.62066 -4.0233,29.25793 -4.46179,2.17097 -6.25009,2.36625 -24.31598,2.65525 l -19.5,0.31195 -0.5,158.21589 -0.5,158.21589 -2.68578,5.09002 c -2.98569,5.65842 -7.72788,10.25315 -14.09202,13.65384 L 765.5,820.5 l -252,0.21017 C 309.15569,820.8806 260.81585,820.6751 257.88228,819.62349 Z M 750.23832,619.086 750.5,454.17199 l 3,-4.26023 c 1.69241,-2.40335 4.89186,-5.21127 7.3405,-6.4422 l 4.34049,-2.18199 -73.84049,-61.4256 C 549.58167,261.93722 513.75477,232.5 511.99197,232.5 c -0.97641,0 -58.22895,47.025 -127.22785,104.5 l -125.45255,104.5 4.59421,2.62874 c 2.93052,1.6768 5.49954,4.21171 7.09422,7 l 2.5,4.37126 0.26171,164.25 0.26171,164.25 H 512.00003 749.97665 Z M 707,305.5 V 267 h -10 -10 v 30.2573 30.2573 l 9.75,8.16432 c 5.3625,4.49038 9.8625,8.1996 10,8.2427 C 706.8875,343.96473 707,326.675 707,305.5 Z"
         id="path134"
         sodipodi:nodetypes="sscccssssssscsssscsssscccsscssccsscssscssccccccscccccsss" />
      <path
         d="m 384.14082,711.3873 -3.41903,-3.41903 0.26903,-73.66784 0.26904,-73.66783 2.80576,-2.41313 c 2.79381,-2.40285 2.90594,-2.41313 26.31575,-2.41313 25.08626,0 26.41107,0.22854 28.86814,4.97998 2.00424,3.87577 2.3024,144.18755 0.31566,148.54796 -2.28528,5.01565 -4.73377,5.47206 -29.35565,5.47206 h -22.64966 z m 78.38482,0.50127 -3.26578,-2.91778 -0.2993,-105.83222 c -0.21224,-75.0508 0.0217,-106.93683 0.80447,-109.63005 2.06487,-7.10479 4.28778,-7.6947 28.99483,-7.6947 24.70705,0 26.92996,0.58991 28.99483,7.6947 0.78273,2.69322 1.01671,34.57925 0.80447,109.63005 l -0.2993,105.83222 -3.26578,2.91778 -3.26577,2.91777 h -22.96845 -22.96845 z m 78,8.6e-4 -3.26578,-2.91691 -0.31441,-37.33309 c -0.21463,-25.48533 0.0407,-38.53834 0.80447,-41.13091 1.35009,-4.58264 5.87315,-7.69304 11.19484,-7.69844 6.3343,-0.006 8.51561,1.46 11.77437,7.91557 5.91995,11.72736 15.0077,18.23848 28.02382,20.0783 3.48291,0.49231 6.70465,1.48174 7.15943,2.19875 0.45477,0.717 0.83375,13.60076 0.84217,28.63056 l 0.0153,27.32693 -2.92308,2.92307 -2.92307,2.92308 H 567.35255 543.7914 Z m 80.34429,1.5214 c -4.85597,-2.69146 -5.03678,-4.00329 -5.07463,-36.81966 l -0.0354,-30.71517 5.38746,-8.35124 c 6.73855,-10.44561 10.45512,-13.71842 15.57848,-13.71842 2.26379,0 4.77148,0.77654 6.17328,1.91165 l 2.36078,1.91164 v 41.17494 41.17494 l -2.80576,2.41341 c -2.482,2.13493 -3.75132,2.40933 -11,2.37798 -4.86705,-0.021 -9.16465,-0.57329 -10.58417,-1.36007 z m -37.20109,-83.47711 c -3.18634,-2.58014 -3.15673,-2.83559 5.52131,-47.62738 4.15575,-21.45 7.55902,-39.9225 7.56282,-41.05 0.0143,-4.24866 -1.20903,-4.45 -27.03812,-4.45 -26.96656,0 -27.98933,-0.22259 -27.93079,-6.07874 0.029,-2.90472 77.36126,-118.37329 81.19408,-121.23491 3.56979,-2.66523 8.16341,-0.60738 8.52849,3.8206 0.13573,1.64618 -3.09031,20.31805 -7.16896,41.49305 -6.68844,34.72407 -7.27432,38.72067 -5.97372,40.75 1.43579,2.24029 1.55617,2.25 27.89591,2.25 h 26.45389 l 1.66491,2.54096 c 1.25832,1.92045 1.4186,3.08042 0.6563,4.75 -2.32782,5.09842 -82.5823,124.80308 -84.2828,125.71316 -2.71126,1.45102 -4.47884,1.23224 -7.08332,-0.87674 z"
         style="fill:#338343;fill-opacity:1"
         id="path1" />
    </g>
  </g>
</svg>
