<?xml version="1.0" encoding="UTF-8" standalone="no"?>
<svg
   width="800"
   height="430.493"
   viewBox="0 0 800 430.493"
   role="img"
   artist="Katerina Limpitsouni"
   source="https://undraw.co/"
   version="1.1"
   id="svg21"
   sodipodi:docname="undraw_connection-lost_am29.svg"
   inkscape:version="1.4.2 (ebf0e940d0, 2025-05-08)"
   xmlns:inkscape="http://www.inkscape.org/namespaces/inkscape"
   xmlns:sodipodi="http://sodipodi.sourceforge.net/DTD/sodipodi-0.dtd"
   xmlns="http://www.w3.org/2000/svg"
   xmlns:svg="http://www.w3.org/2000/svg">
  <defs
     id="defs21" />
  <sodipodi:namedview
     id="namedview21"
     pagecolor="#ffffff"
     bordercolor="#111111"
     borderopacity="1"
     inkscape:showpageshadow="0"
     inkscape:pageopacity="0"
     inkscape:pagecheckerboard="1"
     inkscape:deskcolor="#d1d1d1"
     inkscape:zoom="215.80799"
     inkscape:cx="540.44337"
     inkscape:cy="-151.53053"
     inkscape:window-width="3436"
     inkscape:window-height="1418"
     inkscape:window-x="0"
     inkscape:window-y="0"
     inkscape:window-maximized="0"
     inkscape:current-layer="g21" />
  <g
     transform="translate(-368.866 -254.661)"
     id="g21">
    <ellipse
       cx="149.199"
       cy="26.107"
       rx="149.199"
       ry="26.107"
       transform="translate(368.866 481.453)"
       fill="#090814"
       id="ellipse1" />
    <ellipse
       cx="191.906"
       cy="26.107"
       rx="191.906"
       ry="26.107"
       transform="translate(785.054 632.939)"
       fill="#090814"
       id="ellipse2" />
    <path
       d="M527.508,703.017a139.876,139.876,0,0,1-34.251-3.807l1.007-3.942c61.693,15.766,176.375-20.484,188.785-59.673l3.879,1.228C676.145,670.877,591.731,703.017,527.508,703.017Z"
       transform="translate(229.585 -61.587)"
       fill="#2f2e41"
       id="path2" />
    <path
       d="M422.29,529.663c-14.453-3.693-21.922-7.965-24.218-13.849-2.856-7.316,2.5-15.561,9.919-26.972,11.315-17.409,26.811-41.252,24.3-77.646-1.418-20.568-8.78-35.7-21.879-44.978-26.656-18.878-68.707-7.567-69.129-7.451l-1.085-3.921c1.8-.5,44.3-11.949,72.551,8.041,14.153,10.017,22.094,26.176,23.6,48.028,2.6,37.751-13.977,63.262-24.949,80.143-6.756,10.394-11.637,17.9-9.54,23.275,1.748,4.477,8.559,8.1,21.436,11.386Z"
       transform="translate(278.852 29.977)"
       fill="#2f2e41"
       id="path3" />
    <rect
       width="348.04401"
       height="242.439"
       rx="18.046"
       transform="rotate(90)"
       fill="#e6e6e6"
       id="rect4"
       x="304.33481"
       y="-1111.1871" />
    <circle
       cx="476.59949"
       cy="-1089.9375"
       r="2.0550001"
       transform="rotate(90)"
       fill="#f2f2f2"
       id="circle5" />
    <path
       d="M794.285,488.635H592.452a6.086,6.086,0,0,1-6.079-6.079V414.467a6.086,6.086,0,0,1,6.079-6.079H794.285a6.086,6.086,0,0,1,6.079,6.079v68.088A6.086,6.086,0,0,1,794.285,488.635Z"
       transform="translate(-181.314 -153.727)"
       fill="#6c63ff"
       id="path11"
       style="fill:#17b8a6;fill-opacity:1" />
    <rect
       width="53.498"
       height="6.079"
       transform="translate(436.671 272.899)"
       fill="#f2f2f2"
       id="rect11" />
    <circle
       cx="3.648"
       cy="3.648"
       r="3.648"
       transform="translate(557.041 272.899)"
       fill="#f2f2f2"
       id="circle11" />
    <circle
       cx="3.648"
       cy="3.648"
       r="3.648"
       transform="translate(569.2 272.899)"
       fill="#f2f2f2"
       id="circle12" />
    <circle
       cx="3.648"
       cy="3.648"
       r="3.648"
       transform="translate(581.358 272.899)"
       fill="#f2f2f2"
       id="circle13" />
    <path
       d="M794.285,601.689H592.452a6.087,6.087,0,0,1-6.079-6.079V527.521a6.086,6.086,0,0,1,6.079-6.079H794.285a6.086,6.086,0,0,1,6.079,6.079v68.088A6.086,6.086,0,0,1,794.285,601.689Z"
       transform="translate(-181.314 -180.455)"
       fill="#e6e6e6"
       id="path13" />
    <rect
       width="53.498"
       height="6.079"
       transform="translate(436.671 359.225)"
       fill="#6c63ff"
       id="rect13"
       style="fill:#17b8a6;fill-opacity:1" />
    <circle
       cx="3.648"
       cy="3.648"
       r="3.648"
       transform="translate(557.041 359.225)"
       fill="#6c63ff"
       id="circle14"
       style="fill:#17b8a6;fill-opacity:1" />
    <circle
       cx="3.648"
       cy="3.648"
       r="3.648"
       transform="translate(569.2 359.225)"
       fill="#6c63ff"
       id="circle15"
       style="fill:#17b8a6;fill-opacity:1" />
    <circle
       cx="3.648"
       cy="3.648"
       r="3.648"
       transform="translate(581.358 359.225)"
       fill="#6c63ff"
       id="circle16"
       style="fill:#17b8a6;fill-opacity:1" />
    <path
       d="M794.285,714.743H592.452a6.087,6.087,0,0,1-6.079-6.079V640.575a6.086,6.086,0,0,1,6.079-6.079H794.285a6.086,6.086,0,0,1,6.079,6.079v68.089A6.086,6.086,0,0,1,794.285,714.743Z"
       transform="translate(-181.314 -207.183)"
       fill="#e6e6e6"
       id="path16" />
    <rect
       width="53.498"
       height="6.079"
       transform="translate(436.671 445.552)"
       fill="#6c63ff"
       id="rect16"
       style="fill:#17b8a6;fill-opacity:1" />
    <circle
       cx="3.648"
       cy="3.648"
       r="3.648"
       transform="translate(557.041 445.552)"
       fill="#6c63ff"
       id="circle17"
       style="fill:#17b8a6;fill-opacity:1" />
    <circle
       cx="3.648"
       cy="3.648"
       r="3.648"
       transform="translate(569.2 445.552)"
       fill="#6c63ff"
       id="circle18"
       style="fill:#17b8a6;fill-opacity:1" />
    <circle
       cx="3.648"
       cy="3.648"
       r="3.648"
       transform="translate(581.358 445.552)"
       fill="#6c63ff"
       id="circle19"
       style="fill:#17b8a6;fill-opacity:1" />
    <path
       style="fill:#17b8a6;stroke:none;stroke-width:1.748;stroke-linecap:butt;stroke-linejoin:miter;stroke-opacity:1;stroke-dasharray:none;fill-opacity:1"
       d="m 1071.2724,414.95872 c -84.24742,-1.45585 -93.96827,84.43919 -93.96827,84.43919 6.48058,1.45584 100.44887,-17.47017 93.96827,-84.43919 z"
       id="path21" />
    <path
       style="fill:#17b8a6;stroke:none;stroke-width:1.31671px;stroke-linecap:butt;stroke-linejoin:miter;stroke-opacity:1;fill-opacity:1"
       d="m 905.98155,354.15154 c -6.44475,116.30497 79.91502,140.18902 79.91502,140.18902 0,0 42.53543,-106.95904 -79.91502,-140.18902 z"
       id="path22" />
  </g>
</svg>
